Общее
Уникальный идентификатор                 : 235370342131466576912407053993312476524 (0xB112ADD27F023878A031197BCA0B5D6C)
Полное имя                               : V:\!_HDTV\Virtuoznost.1995.x264.720p.x264.mkv
Формат                                   : Matroska
Версия формата                           : Version 1
Размер файла                             : 4,70 Гбайт
Продолжительность                        : 1 ч. 45 м.
Общий поток                              : 6355 Кбит/сек
Дата кодирования                         : UTC 2008-03-27 16:15:20
Программа кодирования                    : mkvmerge v2.2.0 ('Turn It On Again') built on Mar  4 2008 12:58:26
Библиотека кодирования                   : libebml v0.7.7 + libmatroska v0.8.1

Видео
Идентификатор                            : 1
Формат                                   : AVC
Формат/Информация                        : Advanced Video Codec
Профиль формата                          : High@L5.1
Параметр CABAC формата                   : Да
Параметр ReFrames формата                : 8 кадров
Идентификатор кодека                     : V_MPEG4/ISO/AVC
Продолжительность                        : 1 ч. 45 м.
Битрейт                                  : 5455 Кбит/сек
Ширина                                   : 1280 пикселей
Высота                                   : 544 пикселя
Соотношение сторон                       : 2,35:1
Режим частоты кадров                     : Постоянный
Частота кадров                           : 23,976 кадра/сек
Цветовое пространство                    : YUV
Субдискретизация насыщенности            : 4:2:0
Битовая глубина                          : 8 бит
Тип развёртки                            : Прогрессивная
Бит/(Пиксели*Кадры)                      : 0.327
Размер потока                            : 3,94 Гбайт (84%)
Заголовок                                : HD TRACKER
Библиотека кодирования                   : x264 core 56 svn-680
Настройки программы                      : cabac=1 / ref=5 / deblock=1:-3:-3 / analyse=0x3:0x133 / me=umh / subme=6 / brdo=1 / mixed_ref=1 / me_range=16 / chroma_me=1 / trellis=1 / 8x8dct=1 / cqm=2 / deadzone=21,11 / chroma_qp_offset=0 / threads=1 / nr=0 / decimate=1 / mbaff=0 / bframes=3 / b_pyramid=1 / b_adapt=1 / b_bias=0 / direct=3 / wpredb=1 / bime=1 / keyint=250 / keyint_min=25 / scenecut=40 / rc=2pass / bitrate=5455 / ratetol=1.0 / rceq='blurCplx^(1-qComp)' / qcomp=0.60 / qpmin=10 / qpmax=51 / qpstep=4 / cplxblur=20.0 / qblur=0.5 / ip_ratio=1.40 / pb_ratio=1.30 / aq=1:0.3:15.0
Язык                                     : Russian
Default                                  : Да
Forced                                   : Нет

Аудио #1
Идентификатор                            : 2
Формат                                   : AC-3
Формат/Информация                        : Audio Coding 3
Расширение режима                        : CM (complete main)
Параметр Endianness формата              : Big
Идентификатор кодека                     : A_AC3
Продолжительность                        : 1 ч. 45 м.
Вид битрейта                             : Постоянный
Битрейт                                  : 448 Кбит/сек
Каналы                                   : 6 каналов
Расположение каналов                     : Front: L C R, Side: L R, LFE
Частота                                  : 48,0 КГц
Битовая глубина                          : 16 бит
Метод сжатия                             : С потерями
Размер потока                            : 339 Мбайт (7%)
Язык                                     : Russian
Default                                  : Да
Forced                                   : Нет

Аудио #2
Идентификатор                            : 3
Формат                                   : AC-3
Формат/Информация                        : Audio Coding 3
Расширение режима                        : CM (complete main)
Параметр Endianness формата              : Big
Идентификатор кодека                     : A_AC3
Продолжительность                        : 1 ч. 45 м.
Вид битрейта                             : Постоянный
Битрейт                                  : 448 Кбит/сек
Каналы                                   : 6 каналов
Расположение каналов                     : Front: L C R, Side: L R, LFE
Частота                                  : 48,0 КГц
Битовая глубина                          : 16 бит
Метод сжатия                             : С потерями
Размер потока                            : 339 Мбайт (7%)
Язык                                     : English
Default                                  : Нет
Forced                                   : Нет

Текст
Идентификатор                            : 4
Формат                                   : UTF-8
Идентификатор кодека                     : S_TEXT/UTF8
Идентификатор кодека/Информация          : UTF-8 Plain Text
Язык                                     : English
Default                                  : Да
Forced                                   : Нет